<svg width="70" height="70" viewBox="0 0 70 70" fill="none" xmlns="http://www.w3.org/2000/svg">
<g clip-path="url(#clip0_439_1582)">
<path d="M42.7188 2.78125C45.875 2.78125 48.7344 3.25 51.2969 4.1875C53.8594 5.125 56.0312 6.40625 57.8125 8.03125C59.625 9.65625 61.0156 11.5625 61.9844 13.75C62.9531 15.9062 63.4375 18.2031 63.4375 20.6406V49.1406C63.4375 51.5781 62.9531 53.8906 61.9844 56.0781C61.0156 58.2344 59.625 60.125 57.8125 61.75C56.0312 63.375 53.8594 64.6562 51.2969 65.5938C48.7344 66.5312 45.875 67 42.7188 67H28.2812C25.125 67 22.2656 66.5312 19.7031 65.5938C17.1406 64.6562 14.9531 63.375 13.1406 61.75C11.3594 60.125 9.98438 58.2344 9.01562 56.0781C8.04688 53.8906 7.5625 51.5781 7.5625 49.1406V20.6406C7.5625 18.2031 8.04688 15.9062 9.01562 13.75C9.98438 11.5625 11.3594 9.65625 13.1406 8.03125C14.9531 6.40625 17.1406 5.125 19.7031 4.1875C22.2656 3.25 25.125 2.78125 28.2812 2.78125H42.7188ZM51.5312 31.0938L50.875 27.0625L47.875 24.1094L43 23.5938H32.5L29.6406 23.0312C29.4844 22.5 29.375 22.0312 29.3125 21.625C29.25 21.1875 29.1406 20.7344 28.9844 20.2656V15.3438L29.6406 12.5781L32.7344 11.9688H44.6406L49.0469 12.8594L50.1719 7.75L44.7344 7H32.4062L27.7188 7.65625L24.6719 10.6562L24.0625 14.5938V21.0156L24.6719 24.9531L27.7188 27.9062L32.4062 28.5156H43L45.8594 28.9844C45.9531 29.4531 46.0625 29.8906 46.1875 30.2969C46.3125 30.7031 46.4219 31.125 46.5156 31.5625V37.7031C46.4531 38.1094 46.3438 38.5469 46.1875 39.0156C46.0625 39.4844 45.9531 39.9219 45.8594 40.3281L42.8125 40.7969H31.1875L26.5938 40.0469L25.4219 45.1094L30.9062 45.7656H43.0938L47.875 45.2031L50.875 42.25L51.5312 38.2188V31.0938Z" fill="#103346"/>
</g>
<defs>
<clipPath id="clip0_439_1582">
<rect width="70" height="70" fill="white"/>
</clipPath>
</defs>
</svg>
