<svg id="Слой_2" data-name="Слой 2" xmlns="http://www.w3.org/2000/svg" viewBox="0 0 82.75 82.75"><defs><style>.cls-1,.cls-2{fill:#fff;}.cls-2{stroke:#fff;stroke-miterlimit:10;}</style></defs><title>earth</title><path class="cls-1" d="M480,247.5a32.38,32.38,0,1,1-32.37,32.38A32.41,32.41,0,0,1,480,247.5m0-9a41.38,41.38,0,1,0,41.38,41.38A41.38,41.38,0,0,0,480,238.5h0Z" transform="translate(-438.63 -238.5)"/><path class="cls-1" d="M499.28,311.51a4.28,4.28,0,0,1-.9-0.09,7.48,7.48,0,0,1-4.5-3.35,5.85,5.85,0,0,1-1-4.28c0.45-2,2.48-3.05,4.27-4,1.62-.83,3-1.55,3-2.8,0-.53,0-1.52-7.57-5.11-2.51-1.19-4.23-1.9-5.48-2.42-2.06-.85-2.68-1.11-3.22-2-2.06-3.53,1-10.14,5.23-14.1a27,27,0,0,1,9.09-5.27c2.27-.9,3.77-1.5,3.7-2.58-0.05-.87-1.1-1.31-2.31-1.81-1.48-.62-3.17-1.32-3.69-3-0.87-2.76,2.19-6,3.2-7.07s3.6-3.82,6.38-3.82a4.17,4.17,0,0,1,.58,0c2.61,0.37,4.07,3.31,7.11,9.94,2.57,5.61,4.61,10,5,16.46a38.25,38.25,0,0,1-.75,9.72c-2.07,11.39-6.29,19.26-12.56,23.38a10.82,10.82,0,0,1-5.53,2.16h0Z" transform="translate(-438.63 -238.5)"/><path class="cls-1" d="M505.45,249.95a4.08,4.08,0,0,1,.56,0c2.55,0.36,4,3.28,7,9.87,2.57,5.6,4.6,10,5,16.41a38.14,38.14,0,0,1-.75,9.69c-2.06,11.36-6.27,19.19-12.51,23.29a10.7,10.7,0,0,1-5.46,2.13,4.11,4.11,0,0,1-.87-0.09A7.35,7.35,0,0,1,494,308a5.72,5.72,0,0,1-1-4.19c0.44-2,2.44-3,4.21-3.89s3.08-1.59,3-2.92c0-.77-0.63-1.88-7.64-5.22-2.51-1.2-4.23-1.91-5.48-2.43-2-.84-2.64-1.09-3.16-2-2-3.48,1.06-10,5.21-13.94a26.91,26.91,0,0,1,9-5.24c2.32-.92,3.85-1.53,3.78-2.71-0.06-.95-1.14-1.4-2.39-1.92-1.46-.61-3.11-1.29-3.62-2.89-0.85-2.69,2.17-5.9,3.17-6.95s3.57-3.78,6.29-3.78m0-.25c-2.82,0-5.38,2.7-6.47,3.86s-4.12,4.37-3.23,7.2c1,3.09,5.89,3,6,4.75,0.14,2.17-7.14,2.44-12.75,7.75-4.24,4-7.32,10.7-5.25,14.25,0.89,1.53,2.06,1.32,8.75,4.5,7.14,3.4,7.49,4.44,7.5,5,0.06,2.53-6.38,2.89-7.25,6.75-0.67,3,2.17,7,5.61,7.79a4.36,4.36,0,0,0,.93.1c1.14,0,2.91-.41,5.6-2.18,9.49-6.24,11.94-19.74,12.62-23.46a38.23,38.23,0,0,0,.75-9.75c-0.38-6.3-2.31-10.64-5-16.5-2.94-6.41-4.47-9.63-7.2-10a4.32,4.32,0,0,0-.6,0h0Z" transform="translate(-438.63 -238.5)"/><path class="cls-1" d="M484.74,261.52a10.61,10.61,0,0,1-5.88-2.28c-0.9-.7-1.32-1.21-1.26-1.52a1.29,1.29,0,0,1,.8-0.47,5,5,0,0,0,3.5-5,1.77,1.77,0,0,0-.61-1.36,1.38,1.38,0,0,0-.85-0.26,6.11,6.11,0,0,0-3.31,1.6c-2.18-.73-2.39-1.3-2.4-1.47a1,1,0,0,1,.41-0.58,2.43,2.43,0,0,0,.88-1.48,2.74,2.74,0,0,0-1.25-2.27,1.52,1.52,0,0,1-.77-1.1c0.1-.44.42-0.6,1.35-1a12,12,0,0,0,3.71-2.19l0.43-.39a2,2,0,0,1,1.21-.74c0.65,0,1.33.66,2,1.87l0.21,0.38,0.41-.15a3.25,3.25,0,0,1,1.15-.2,3.69,3.69,0,0,1,.79.09l0.12,0,0.12,0a9.29,9.29,0,0,1,1.06-.23,8.67,8.67,0,0,1,1.29-.09,12,12,0,0,1,2.77.33,8.09,8.09,0,0,1,3.35,1.28c1.13,1.11,1,4.4-.27,8-1.56,4.36-4.8,8.91-8.51,9.23l-0.46,0h0Z" transform="translate(-438.63 -238.5)"/><path class="cls-1" d="M480.72,240.5v1c0.16,0,.73.13,1.55,1.61l0.42,0.76,0.81-.31a2.75,2.75,0,0,1,1-.17,3.19,3.19,0,0,1,.69.08l0.24,0.05,0.24-.07a8.73,8.73,0,0,1,1-.22,8.18,8.18,0,0,1,1.22-.08,11.57,11.57,0,0,1,2.65.32,8.05,8.05,0,0,1,3.11,1.15c0.84,0.83,1,3.66-.39,7.48-1.51,4.21-4.59,8.6-8.08,8.9l-0.42,0a10.18,10.18,0,0,1-5.57-2.18,4.47,4.47,0,0,1-1-1l0.42-.17a5.49,5.49,0,0,0,3.82-5.53,2.21,2.21,0,0,0-.81-1.73,1.87,1.87,0,0,0-1.15-.36,6.42,6.42,0,0,0-3.4,1.54,4.5,4.5,0,0,1-1.75-.91l0.21-.22a2.92,2.92,0,0,0,1-1.77,3.17,3.17,0,0,0-1.41-2.7,3.71,3.71,0,0,1-.62-0.65,1.71,1.71,0,0,1,1-.6,12.45,12.45,0,0,0,3.85-2.28l0.44-.4a1.83,1.83,0,0,1,.87-0.61v-1m0,0c-0.72,0-1.16.55-2,1.25-2.89,2.5-4.88,2-5.22,3.43-0.3,1.25,2.19,1.93,2,3.43-0.13,1-1.33,1.33-1.29,2.14,0,0.55.64,1.25,3,2a6.12,6.12,0,0,1,3.2-1.66,0.89,0.89,0,0,1,.55.16c0.81,0.61.4,3.15-1,4.5-1.21,1.17-2.7,1-2.88,1.86s0.87,1.59,1.44,2a11.1,11.1,0,0,0,6.19,2.39l0.51,0c7.09-.62,12.2-15,9.08-18.09a8.3,8.3,0,0,0-3.58-1.41,12.57,12.57,0,0,0-2.88-.35,8.79,8.79,0,0,0-1.37.1,9.69,9.69,0,0,0-1.12.24,4.2,4.2,0,0,0-.9-0.1,3.77,3.77,0,0,0-1.33.23c-0.51-.92-1.34-2.11-2.4-2.13h0Z" transform="translate(-438.63 -238.5)"/><path class="cls-1" d="M468.6,316.31c-2.9,0-5.45-1.23-5.45-2,0-3.47-1.69-5.43-3.45-7.5a28.33,28.33,0,0,1-2-2.62,6.5,6.5,0,0,1-1.32-4.06,10.79,10.79,0,0,0-.68-3.67c-1.44-4-2.31-6.34-4.6-8.14a8.22,8.22,0,0,0-4.31-1.71,4.31,4.31,0,0,1-3.12-1.47c-2.36-2.79-1.34-7.61-.82-8.05a1.83,1.83,0,0,0,.73-1,1.72,1.72,0,0,0-.09-1,3.48,3.48,0,0,1-.2-1.79c0.11-.78.16-1.55,0.21-2.3,0.14-2.19.28-4.26,1.82-6.06a6.2,6.2,0,0,1,.71-0.71,1.65,1.65,0,0,0,.53-1.6,3.17,3.17,0,0,1,0-1.18v-0.23c0.25-1.28,11.24-8.84,17.72-8.84a3.68,3.68,0,0,1,2.86,1c1.21,1.35,1.22,4.37,0,5.56a1.84,1.84,0,0,1-1,.47,9,9,0,0,0-2.38.94c-2.4,1.33-3.5,2.59-3.3,3.76A1.46,1.46,0,0,0,462,265.3a8.85,8.85,0,0,0,2.24-.47,17.79,17.79,0,0,1,4.26-.83c0.27,0,.61,0,1,0,2.16,0,3.64.52,4.53,1.58a3.79,3.79,0,0,1,.87,3.34c-0.69,2.07-4.33,3.14-8.54,4.37l-1,.29c-1.61.45-2.59,0.72-3,1.73a3.13,3.13,0,0,0,.24,2.55,5,5,0,0,1,.47,2.83c-0.14.87-.65,2.44-1.69,2.86a1.48,1.48,0,0,1-.57.11,5.06,5.06,0,0,1-2.26-.92,5.5,5.5,0,0,0-2.62-1,2.25,2.25,0,0,0-.9.18,4,4,0,0,0-2,2.93l0.89,0.26c0,0.19.09,0.4,0.13,0.6,0.28,1.32.69,3.31,2.18,4.46a4.83,4.83,0,0,0,3,.91,9.17,9.17,0,0,0,1.52-.14c1,3.3,1.5,3.58,2,3.58h0c0.73-.1.78-0.8,0.85-1.7s0.17-2.28.9-2.76a1.75,1.75,0,0,1,1-.24,6.16,6.16,0,0,1,4.41,2.49c1.27,1.73,1.37,4.09,1.43,5.5,0,1,.07,1.68.7,1.71h0a1,1,0,0,0,.8-0.84,2.38,2.38,0,0,1,1-1.45h0a3.33,3.33,0,0,1,1-.11,6.73,6.73,0,0,1,3,1.06c1.8,1.35,1.79,6.31,0,10.4-0.35.79-3.61,7.75-9.17,7.77h0Z" transform="translate(-438.63 -238.5)"/><path class="cls-1" d="M464.27,252.84a3.22,3.22,0,0,1,2.49.83c1,1.14,1,3.87,0,4.87a1.39,1.39,0,0,1-.78.34,9.46,9.46,0,0,0-2.5,1c-2.6,1.44-3.8,2.88-3.55,4.28a2,2,0,0,0,.45,1,2,2,0,0,0,1.61.68,9.28,9.28,0,0,0,2.38-.49,17.37,17.37,0,0,1,4.14-.81l1,0c2,0,3.36.46,4.15,1.4a3.28,3.28,0,0,1,.78,2.86c-0.61,1.82-4.3,2.91-8.21,4.05l-1,.29c-1.69.47-2.81,0.78-3.37,2a3.57,3.57,0,0,0,.23,2.94,4.55,4.55,0,0,1,.44,2.56c-0.11.71-.55,2.14-1.39,2.48a1,1,0,0,1-.38.07,4.8,4.8,0,0,1-2-.85,5.85,5.85,0,0,0-2.87-1.08,2.73,2.73,0,0,0-1.1.23,4.43,4.43,0,0,0-2.25,3.23c-0.42,1.28-.24,1.62-0.16,1.78l0.2,0.38L453,287l0.14,0h0.14a1,1,0,0,0,.52-0.14,6.48,6.48,0,0,0,2.12,3.68,5.32,5.32,0,0,0,3.33,1,9.12,9.12,0,0,0,1.17-.08c0.85,2.71,1.42,3.52,2.34,3.52h0.16c1-.14,1.11-1.21,1.18-2.15s0.15-2,.68-2.38a1.29,1.29,0,0,1,.69-0.16,5.68,5.68,0,0,1,4,2.28c1.18,1.61,1.28,3.87,1.34,5.22,0,1,.09,2.13,1.17,2.18H472a1.41,1.41,0,0,0,1.24-1.17,2,2,0,0,1,.72-1.15,3.43,3.43,0,0,1,.88-0.08,6.3,6.3,0,0,1,2.68,1c1.58,1.18,1.48,6-.18,9.79-0.34.76-3.46,7.46-8.74,7.47-2.63,0-4.72-1.06-5-1.52,0-3.62-1.84-5.74-3.57-7.78a28,28,0,0,1-2-2.57,6,6,0,0,1-1.24-3.8,11.36,11.36,0,0,0-.7-3.82c-1.47-4-2.36-6.48-4.76-8.36a8.77,8.77,0,0,0-4.54-1.81,3.82,3.82,0,0,1-2.82-1.3c-2-2.42-1.35-6.65-.85-7.37a2.28,2.28,0,0,0,.87-1.3,2.21,2.21,0,0,0-.11-1.32,3,3,0,0,1-.17-1.54c0.11-.8.16-1.58,0.21-2.33,0.14-2.2.27-4.1,1.7-5.77a5.68,5.68,0,0,1,.65-0.65,2.17,2.17,0,0,0,.69-2.07,2.66,2.66,0,0,1,0-1,1.69,1.69,0,0,0,0-.18c0.88-1.61,11.21-8.48,17.22-8.48m0-1c-6.52,0-18.4,7.85-18.22,9.4a3.9,3.9,0,0,0,0,1.45,1.16,1.16,0,0,1-.36,1.12,6.67,6.67,0,0,0-.77.76c-2.18,2.56-1.72,5.54-2.14,8.62a4,4,0,0,0,.23,2,1.21,1.21,0,0,1,.06.73,1.38,1.38,0,0,1-.56.77c-0.8.63-1.79,5.77,0.75,8.77,2.11,2.49,4.33.76,7.5,3.25,2.18,1.71,3,4,4.44,7.92,1.33,3.65-.23,4.4,2.05,7.83s5.36,5.23,5.41,9.84c0,1.24,3.08,2.47,6,2.47h0c5.93,0,9.27-7.26,9.63-8.06,1.78-4,2-9.39-.13-11a7.2,7.2,0,0,0-3.28-1.16h0a3.43,3.43,0,0,0-1.24.16c-1.21.58-1.26,2.25-1.58,2.25h0c-0.5,0,.3-4.2-1.75-7a6.65,6.65,0,0,0-4.81-2.69,2.25,2.25,0,0,0-1.23.32c-1.55,1-.85,4.29-1.46,4.38h0c-0.26,0-.73-0.58-1.64-3.66a9.2,9.2,0,0,1-1.87.21,4.36,4.36,0,0,1-2.72-.81c-2.16-1.66-1.85-5.5-2.53-5.5h0a0.92,0.92,0,0,0-.49.71c-0.15.59-.2,1-0.23,1h0a4.88,4.88,0,0,1,.23-1,3.73,3.73,0,0,1,1.68-2.6,1.73,1.73,0,0,1,.7-0.14c1.56,0,3.22,1.93,4.88,1.93a2,2,0,0,0,.76-0.15c1.56-.63,2-3,2-3.25,0.4-2.51-1.41-3.78-.75-5.25,0.43-1,1.52-1.1,3.75-1.75,4.39-1.29,8.1-2.38,8.88-4.7a4.26,4.26,0,0,0-1-3.82c-1.28-1.53-3.41-1.76-4.92-1.76-0.38,0-.73,0-1,0-2.93.13-5.19,1.3-6.47,1.3A1,1,0,0,1,461,264c-0.25-1.4,2.5-2.93,3-3.23,2.08-1.15,2.72-.72,3.5-1.5,1.38-1.37,1.4-4.68,0-6.25a4.16,4.16,0,0,0-3.23-1.16h0Z" transform="translate(-438.63 -238.5)"/><path class="cls-2" d="M499,266.25" transform="translate(-438.63 -238.5)"/></svg>