<svg id="Слой_1" xmlns="http://www.w3.org/2000/svg" viewBox="0 0 48 48"><style>.st0{fill:#fff}</style><g id="surface1"><path class="st0" d="M6 26.5c-.3 0-.5-.2-.5-.5v-4c0-.3.2-.5.5-.5h36c.3 0 .5.2.5.5v4c0 .3-.2.5-.5.5H6z"/><path class="st0" d="M42 22v4H6v-4h36m0-1H6c-.6 0-1 .4-1 1v4c0 .6.4 1 1 1h36c.6 0 1-.4 1-1v-4c0-.6-.4-1-1-1zM6 14.5c-.3 0-.5-.2-.5-.5v-4c0-.3.2-.5.5-.5h36c.3 0 .5.2.5.5v4c0 .3-.2.5-.5.5H6z"/><path class="st0" d="M42 10v4H6v-4h36m0-1H6c-.6 0-1 .4-1 1v4c0 .6.4 1 1 1h36c.6 0 1-.4 1-1v-4c0-.6-.4-1-1-1zM6 38.5c-.3 0-.5-.2-.5-.5v-4c0-.3.2-.5.5-.5h36c.3 0 .5.2.5.5v4c0 .3-.2.5-.5.5H6z"/><path class="st0" d="M42 34v4H6v-4h36m0-1H6c-.6 0-1 .4-1 1v4c0 .6.4 1 1 1h36c.6 0 1-.4 1-1v-4c0-.6-.4-1-1-1z"/></g></svg>